<?xml version="1.0" standalone="no"?>
<!DOCTYPE svg PUBLIC "-//W3C//DTD SVG 1.1//EN" "http://www.w3.org/Graphics/SVG/1.1/DTD/svg11.dtd">
<svg version="1.1" width="1200" height="374" onload="init(evt)" viewBox="0 0 1200 374" xmlns="http://www.w3.org/2000/svg" xmlns:xlink="http://www.w3.org/1999/xlink">
<!-- Flame graph stack visualization. See https://github.com/brendangregg/FlameGraph for latest version, and http://www.brendangregg.com/flamegraphs.html for examples. -->
<!-- NOTES:  -->
<defs>
	<linearGradient id="background" y1="0" y2="1" x1="0" x2="0" >
		<stop stop-color="#eeeeee" offset="5%" />
		<stop stop-color="#eeeeb0" offset="95%" />
	</linearGradient>
</defs>
<style type="text/css">
	text { font-family:Verdana; font-size:12px; fill:rgb(0,0,0); }
	#search, #ignorecase { opacity:0.1; cursor:pointer; }
	#search:hover, #search.show, #ignorecase:hover, #ignorecase.show { opacity:1; }
	#subtitle { text-anchor:middle; font-color:rgb(160,160,160); }
	#title { text-anchor:middle; font-size:17px}
	#unzoom { cursor:pointer; }
	#frames > *:hover { stroke:black; stroke-width:0.5; cursor:pointer; }
	.hide { display:none; }
	.parent { opacity:0.5; }
</style>
<script type="text/ecmascript">
<![CDATA[
	"use strict";
	var details, searchbtn, unzoombtn, matchedtxt, svg, searching, currentSearchTerm, ignorecase, ignorecaseBtn;
	function init(evt) {
		details = document.getElementById("details").firstChild;
		searchbtn = document.getElementById("search");
		ignorecaseBtn = document.getElementById("ignorecase");
		unzoombtn = document.getElementById("unzoom");
		matchedtxt = document.getElementById("matched");
		svg = document.getElementsByTagName("svg")[0];
		searching = 0;
		currentSearchTerm = null;

		// use GET parameters to restore a flamegraphs state.
		var params = get_params();
		if (params.x && params.y)
			zoom(find_group(document.querySelector('[x="' + params.x + '"][y="' + params.y + '"]')));
                if (params.s) search(params.s);
	}

	// event listeners
	window.addEventListener("click", function(e) {
		var target = find_group(e.target);
		if (target) {
			if (target.nodeName == "a") {
				if (e.ctrlKey === false) return;
				e.preventDefault();
			}
			if (target.classList.contains("parent")) unzoom(true);
			zoom(target);
			if (!document.querySelector('.parent')) {
				// we have basically done a clearzoom so clear the url
				var params = get_params();
				if (params.x) delete params.x;
				if (params.y) delete params.y;
				history.replaceState(null, null, parse_params(params));
				unzoombtn.classList.add("hide");
				return;
			}

			// set parameters for zoom state
			var el = target.querySelector("rect");
			if (el && el.attributes && el.attributes.y && el.attributes._orig_x) {
				var params = get_params()
				params.x = el.attributes._orig_x.value;
				params.y = el.attributes.y.value;
				history.replaceState(null, null, parse_params(params));
			}
		}
		else if (e.target.id == "unzoom") clearzoom();
		else if (e.target.id == "search") search_prompt();
		else if (e.target.id == "ignorecase") toggle_ignorecase();
	}, false)

	// mouse-over for info
	// show
	window.addEventListener("mouseover", function(e) {
		var target = find_group(e.target);
		if (target) details.nodeValue = "Function: " + g_to_text(target);
	}, false)

	// clear
	window.addEventListener("mouseout", function(e) {
		var target = find_group(e.target);
		if (target) details.nodeValue = ' ';
	}, false)

	// ctrl-F for search
	// ctrl-I to toggle case-sensitive search
	window.addEventListener("keydown",function (e) {
		if (e.keyCode === 114 || (e.ctrlKey && e.keyCode === 70)) {
			e.preventDefault();
			search_prompt();
		}
		else if (e.ctrlKey && e.keyCode === 73) {
			e.preventDefault();
			toggle_ignorecase();
		}
	}, false)

	// functions
	function get_params() {
		var params = {};
		var paramsarr = window.location.search.substr(1).split('&');
		for (var i = 0; i < paramsarr.length; ++i) {
			var tmp = paramsarr[i].split("=");
			if (!tmp[0] || !tmp[1]) continue;
			params[tmp[0]]  = decodeURIComponent(tmp[1]);
		}
		return params;
	}
	function parse_params(params) {
		var uri = "?";
		for (var key in params) {
			uri += key + '=' + encodeURIComponent(params[key]) + '&';
		}
		if (uri.slice(-1) == "&")
			uri = uri.substring(0, uri.length - 1);
		if (uri == '?')
			uri = window.location.href.split('?')[0];
		return uri;
	}
	function find_child(node, selector) {
		var children = node.querySelectorAll(selector);
		if (children.length) return children[0];
	}
	function find_group(node) {
		var parent = node.parentElement;
		if (!parent) return;
		if (parent.id == "frames") return node;
		return find_group(parent);
	}
	function orig_save(e, attr, val) {
		if (e.attributes["_orig_" + attr] != undefined) return;
		if (e.attributes[attr] == undefined) return;
		if (val == undefined) val = e.attributes[attr].value;
		e.setAttribute("_orig_" + attr, val);
	}
	function orig_load(e, attr) {
		if (e.attributes["_orig_"+attr] == undefined) return;
		e.attributes[attr].value = e.attributes["_orig_" + attr].value;
		e.removeAttribute("_orig_"+attr);
	}
	function g_to_text(e) {
		var text = find_child(e, "title").firstChild.nodeValue;
		return (text)
	}
	function g_to_func(e) {
		var func = g_to_text(e);
		// if there's any manipulation we want to do to the function
		// name before it's searched, do it here before returning.
		return (func);
	}
	function update_text(e) {
		var r = find_child(e, "rect");
		var t = find_child(e, "text");
		var w = parseFloat(r.attributes.width.value) -3;
		var txt = find_child(e, "title").textContent.replace(/\([^(]*\)$/,"");
		t.attributes.x.value = parseFloat(r.attributes.x.value) + 3;

		// Smaller than this size won't fit anything
		if (w < 2 * 12 * 0.59) {
			t.textContent = "";
			return;
		}

		t.textContent = txt;
		var sl = t.getSubStringLength(0, txt.length);
		// check if only whitespace or if we can fit the entire string into width w
		if (/^ *$/.test(txt) || sl < w)
			return;

		// this isn't perfect, but gives a good starting point
		// and avoids calling getSubStringLength too often
		var start = Math.floor((w/sl) * txt.length);
		for (var x = start; x > 0; x = x-2) {
			if (t.getSubStringLength(0, x + 2) <= w) {
				t.textContent = txt.substring(0, x) + "..";
				return;
			}
		}
		t.textContent = "";
	}

	// zoom
	function zoom_reset(e) {
		if (e.attributes != undefined) {
			orig_load(e, "x");
			orig_load(e, "width");
		}
		if (e.childNodes == undefined) return;
		for (var i = 0, c = e.childNodes; i < c.length; i++) {
			zoom_reset(c[i]);
		}
	}
	function zoom_child(e, x, ratio) {
		if (e.attributes != undefined) {
			if (e.attributes.x != undefined) {
				orig_save(e, "x");
				e.attributes.x.value = (parseFloat(e.attributes.x.value) - x - 10) * ratio + 10;
				if (e.tagName == "text")
					e.attributes.x.value = find_child(e.parentNode, "rect[x]").attributes.x.value + 3;
			}
			if (e.attributes.width != undefined) {
				orig_save(e, "width");
				e.attributes.width.value = parseFloat(e.attributes.width.value) * ratio;
			}
		}

		if (e.childNodes == undefined) return;
		for (var i = 0, c = e.childNodes; i < c.length; i++) {
			zoom_child(c[i], x - 10, ratio);
		}
	}
	function zoom_parent(e) {
		if (e.attributes) {
			if (e.attributes.x != undefined) {
				orig_save(e, "x");
				e.attributes.x.value = 10;
			}
			if (e.attributes.width != undefined) {
				orig_save(e, "width");
				e.attributes.width.value = parseInt(svg.width.baseVal.value) - (10 * 2);
			}
		}
		if (e.childNodes == undefined) return;
		for (var i = 0, c = e.childNodes; i < c.length; i++) {
			zoom_parent(c[i]);
		}
	}
	function zoom(node) {
		var attr = find_child(node, "rect").attributes;
		var width = parseFloat(attr.width.value);
		var xmin = parseFloat(attr.x.value);
		var xmax = parseFloat(xmin + width);
		var ymin = parseFloat(attr.y.value);
		var ratio = (svg.width.baseVal.value - 2 * 10) / width;

		// XXX: Workaround for JavaScript float issues (fix me)
		var fudge = 0.0001;

		unzoombtn.classList.remove("hide");

		var el = document.getElementById("frames").children;
		for (var i = 0; i < el.length; i++) {
			var e = el[i];
			var a = find_child(e, "rect").attributes;
			var ex = parseFloat(a.x.value);
			var ew = parseFloat(a.width.value);
			var upstack;
			// Is it an ancestor
			if (0 == 0) {
				upstack = parseFloat(a.y.value) > ymin;
			} else {
				upstack = parseFloat(a.y.value) < ymin;
			}
			if (upstack) {
				// Direct ancestor
				if (ex <= xmin && (ex+ew+fudge) >= xmax) {
					e.classList.add("parent");
					zoom_parent(e);
					update_text(e);
				}
				// not in current path
				else
					e.classList.add("hide");
			}
			// Children maybe
			else {
				// no common path
				if (ex < xmin || ex + fudge >= xmax) {
					e.classList.add("hide");
				}
				else {
					zoom_child(e, xmin, ratio);
					update_text(e);
				}
			}
		}
		search();
	}
	function unzoom(dont_update_text) {
		unzoombtn.classList.add("hide");
		var el = document.getElementById("frames").children;
		for(var i = 0; i < el.length; i++) {
			el[i].classList.remove("parent");
			el[i].classList.remove("hide");
			zoom_reset(el[i]);
			if(!dont_update_text) update_text(el[i]);
		}
		search();
	}
	function clearzoom() {
		unzoom();

		// remove zoom state
		var params = get_params();
		if (params.x) delete params.x;
		if (params.y) delete params.y;
		history.replaceState(null, null, parse_params(params));
	}

	// search
	function toggle_ignorecase() {
		ignorecase = !ignorecase;
		if (ignorecase) {
			ignorecaseBtn.classList.add("show");
		} else {
			ignorecaseBtn.classList.remove("show");
		}
		reset_search();
		search();
	}
	function reset_search() {
		var el = document.querySelectorAll("#frames rect");
		for (var i = 0; i < el.length; i++) {
			orig_load(el[i], "fill")
		}
		var params = get_params();
		delete params.s;
		history.replaceState(null, null, parse_params(params));
	}
	function search_prompt() {
		if (!searching) {
			var term = prompt("Enter a search term (regexp " +
			    "allowed, eg: ^ext4_)"
			    + (ignorecase ? ", ignoring case" : "")
			    + "\nPress Ctrl-i to toggle case sensitivity", "");
			if (term != null) search(term);
		} else {
			reset_search();
			searching = 0;
			currentSearchTerm = null;
			searchbtn.classList.remove("show");
			searchbtn.firstChild.nodeValue = "Search"
			matchedtxt.classList.add("hide");
			matchedtxt.firstChild.nodeValue = ""
		}
	}
	function search(term) {
		if (term) currentSearchTerm = term;

		var re = new RegExp(currentSearchTerm, ignorecase ? 'i' : '');
		var el = document.getElementById("frames").children;
		var matches = new Object();
		var maxwidth = 0;
		for (var i = 0; i < el.length; i++) {
			var e = el[i];
			var func = g_to_func(e);
			var rect = find_child(e, "rect");
			if (func == null || rect == null)
				continue;

			// Save max width. Only works as we have a root frame
			var w = parseFloat(rect.attributes.width.value);
			if (w > maxwidth)
				maxwidth = w;

			if (func.match(re)) {
				// highlight
				var x = parseFloat(rect.attributes.x.value);
				orig_save(rect, "fill");
				rect.attributes.fill.value = "rgb(230,0,230)";

				// remember matches
				if (matches[x] == undefined) {
					matches[x] = w;
				} else {
					if (w > matches[x]) {
						// overwrite with parent
						matches[x] = w;
					}
				}
				searching = 1;
			}
		}
		if (!searching)
			return;
		var params = get_params();
		params.s = currentSearchTerm;
		history.replaceState(null, null, parse_params(params));

		searchbtn.classList.add("show");
		searchbtn.firstChild.nodeValue = "Reset Search";

		// calculate percent matched, excluding vertical overlap
		var count = 0;
		var lastx = -1;
		var lastw = 0;
		var keys = Array();
		for (k in matches) {
			if (matches.hasOwnProperty(k))
				keys.push(k);
		}
		// sort the matched frames by their x location
		// ascending, then width descending
		keys.sort(function(a, b){
			return a - b;
		});
		// Step through frames saving only the biggest bottom-up frames
		// thanks to the sort order. This relies on the tree property
		// where children are always smaller than their parents.
		var fudge = 0.0001;	// JavaScript floating point
		for (var k in keys) {
			var x = parseFloat(keys[k]);
			var w = matches[keys[k]];
			if (x >= lastx + lastw - fudge) {
				count += w;
				lastx = x;
				lastw = w;
			}
		}
		// display matched percent
		matchedtxt.classList.remove("hide");
		var pct = 100 * count / maxwidth;
		if (pct != 100) pct = pct.toFixed(1)
		matchedtxt.firstChild.nodeValue = "Matched: " + pct + "%";
	}
]]>
</script>
<rect x="0.0" y="0" width="1200.0" height="374.0" fill="url(#background)"  />
<text id="title" x="600.00" y="24" >Flame Graph</text>
<text id="details" x="10.00" y="357" > </text>
<text id="unzoom" x="10.00" y="24" class="hide">Reset Zoom</text>
<text id="search" x="1090.00" y="24" >Search</text>
<text id="ignorecase" x="1174.00" y="24" >ic</text>
<text id="matched" x="1090.00" y="357" > </text>
<g id="frames">
<g >
<title>ParNewGenTask::work (582,000,000 samples, 0.01%)</title><rect x="1188.1" y="245" width="0.2" height="15.0" fill="rgb(222,156,32)" rx="2" ry="2" />
<text  x="1191.13" y="255.5" ></text>
</g>
<g >
<title>TypeArrayKlass::allocate_common (580,500,000 samples, 0.01%)</title><rect x="1178.6" y="245" width="0.2" height="15.0" fill="rgb(246,73,14)" rx="2" ry="2" />
<text  x="1181.61" y="255.5" ></text>
</g>
<g >
<title>JavaThread::run (1,718,000,000 samples, 0.04%)</title><rect x="1187.4" y="261" width="0.5" height="15.0" fill="rgb(206,18,28)" rx="2" ry="2" />
<text  x="1190.45" y="271.5" ></text>
</g>
<g >
<title>GangWorker::loop (612,250,000 samples, 0.01%)</title><rect x="1188.7" y="261" width="0.1" height="15.0" fill="rgb(246,47,41)" rx="2" ry="2" />
<text  x="1191.66" y="271.5" ></text>
</g>
<g >
<title>Gang_worker#5_( (582,000,000 samples, 0.01%)</title><rect x="1188.8" y="309" width="0.2" height="15.0" fill="rgb(243,116,37)" rx="2" ry="2" />
<text  x="1191.83" y="319.5" ></text>
</g>
<g >
<title>[perf-11308.map] (7,722,500,000 samples, 0.19%)</title><rect x="1185.2" y="117" width="2.2" height="15.0" fill="rgb(206,224,5)" rx="2" ry="2" />
<text  x="1188.17" y="127.5" ></text>
</g>
<g >
<title>C2Compiler::compile_method (1,706,750,000 samples, 0.04%)</title><rect x="1187.4" y="197" width="0.5" height="15.0" fill="rgb(210,145,50)" rx="2" ry="2" />
<text  x="1190.45" y="207.5" ></text>
</g>
<g >
<title>start_thread (1,718,000,000 samples, 0.04%)</title><rect x="1187.4" y="293" width="0.5" height="15.0" fill="rgb(205,45,32)" rx="2" ry="2" />
<text  x="1190.45" y="303.5" ></text>
</g>
<g >
<title>ParNewGenTask::work (594,250,000 samples, 0.01%)</title><rect x="1189.5" y="245" width="0.2" height="15.0" fill="rgb(254,42,42)" rx="2" ry="2" />
<text  x="1192.51" y="255.5" ></text>
</g>
<g >
<title>Compile::Compile (1,706,000,000 samples, 0.04%)</title><rect x="1187.5" y="181" width="0.4" height="15.0" fill="rgb(238,148,50)" rx="2" ry="2" />
<text  x="1190.45" y="191.5" ></text>
</g>
<g >
<title>jni_CallStaticVoidMethod (433,750,000 samples, 0.01%)</title><rect x="1189.9" y="261" width="0.1" height="15.0" fill="rgb(251,225,31)" rx="2" ry="2" />
<text  x="1192.88" y="271.5" ></text>
</g>
<g >
<title>java_start (598,750,000 samples, 0.01%)</title><rect x="1189.5" y="277" width="0.2" height="15.0" fill="rgb(246,55,31)" rx="2" ry="2" />
<text  x="1192.51" y="287.5" ></text>
</g>
<g >
<title>Gang_worker#2_( (634,000,000 samples, 0.02%)</title><rect x="1188.3" y="309" width="0.2" height="15.0" fill="rgb(221,204,1)" rx="2" ry="2" />
<text  x="1191.30" y="319.5" ></text>
</g>
<g >
<title>JavaCalls::call_virtual (7,901,750,000 samples, 0.19%)</title><rect x="1185.1" y="197" width="2.3" height="15.0" fill="rgb(245,61,26)" rx="2" ry="2" />
<text  x="1188.12" y="207.5" ></text>
</g>
<g >
<title>[perf-11308.map] (19,345,250,000 samples, 0.46%)</title><rect x="1179.6" y="261" width="5.5" height="15.0" fill="rgb(252,93,19)" rx="2" ry="2" />
<text  x="1182.59" y="271.5" ></text>
</g>
<g >
<title>start_thread (434,000,000 samples, 0.01%)</title><rect x="1189.9" y="293" width="0.1" height="15.0" fill="rgb(250,229,21)" rx="2" ry="2" />
<text  x="1192.88" y="303.5" ></text>
</g>
<g >
<title>ParNewGenTask::work (598,250,000 samples, 0.01%)</title><rect x="1188.3" y="245" width="0.2" height="15.0" fill="rgb(250,102,47)" rx="2" ry="2" />
<text  x="1191.31" y="255.5" ></text>
</g>
<g >
<title>C2_CompilerThre (1,728,750,000 samples, 0.04%)</title><rect x="1187.4" y="309" width="0.5" height="15.0" fill="rgb(241,64,27)" rx="2" ry="2" />
<text  x="1190.45" y="319.5" ></text>
</g>
<g >
<title>[perf-11308.map] (416,250,000 samples, 0.01%)</title><rect x="1189.9" y="85" width="0.1" height="15.0" fill="rgb(250,92,40)" rx="2" ry="2" />
<text  x="1192.88" y="95.5" ></text>
</g>
<g >
<title>GangWorker::loop (589,250,000 samples, 0.01%)</title><rect x="1189.0" y="261" width="0.2" height="15.0" fill="rgb(208,214,12)" rx="2" ry="2" />
<text  x="1192.00" y="271.5" ></text>
</g>
<g >
<title>GangWorker::loop (594,000,000 samples, 0.01%)</title><rect x="1188.0" y="261" width="0.1" height="15.0" fill="rgb(236,72,42)" rx="2" ry="2" />
<text  x="1190.95" y="271.5" ></text>
</g>
<g >
<title>GangWorker::loop (602,250,000 samples, 0.01%)</title><rect x="1188.5" y="261" width="0.2" height="15.0" fill="rgb(228,213,17)" rx="2" ry="2" />
<text  x="1191.48" y="271.5" ></text>
</g>
<g >
<title>[perf-11308.map] (3,419,750,000 samples, 0.08%)</title><rect x="1186.4" y="37" width="1.0" height="15.0" fill="rgb(240,41,6)" rx="2" ry="2" />
<text  x="1189.38" y="47.5" ></text>
</g>
<g >
<title>[perf-11308.map] (433,750,000 samples, 0.01%)</title><rect x="1189.9" y="181" width="0.1" height="15.0" fill="rgb(243,39,32)" rx="2" ry="2" />
<text  x="1192.88" y="191.5" ></text>
</g>
<g >
<title>VMThread::run (386,500,000 samples, 0.01%)</title><rect x="1189.7" y="261" width="0.1" height="15.0" fill="rgb(239,42,43)" rx="2" ry="2" />
<text  x="1192.73" y="271.5" ></text>
</g>
<g >
<title>java_start (590,250,000 samples, 0.01%)</title><rect x="1189.3" y="277" width="0.2" height="15.0" fill="rgb(209,159,33)" rx="2" ry="2" />
<text  x="1192.34" y="287.5" ></text>
</g>
<g >
<title>JavaThread::run (7,902,250,000 samples, 0.19%)</title><rect x="1185.1" y="261" width="2.3" height="15.0" fill="rgb(226,21,50)" rx="2" ry="2" />
<text  x="1188.12" y="271.5" ></text>
</g>
<g >
<title>ParNewGenTask::work (586,500,000 samples, 0.01%)</title><rect x="1189.0" y="245" width="0.2" height="15.0" fill="rgb(214,83,18)" rx="2" ry="2" />
<text  x="1192.00" y="255.5" ></text>
</g>
<g >
<title>PhaseChaitin::Register_Allocate (694,250,000 samples, 0.02%)</title><rect x="1187.5" y="149" width="0.2" height="15.0" fill="rgb(253,167,17)" rx="2" ry="2" />
<text  x="1190.52" y="159.5" ></text>
</g>
<g >
<title>JavaThread::thread_main_inner (1,718,000,000 samples, 0.04%)</title><rect x="1187.4" y="245" width="0.5" height="15.0" fill="rgb(245,117,29)" rx="2" ry="2" />
<text  x="1190.45" y="255.5" ></text>
</g>
<g >
<title>JavaThread::thread_main_inner (7,902,250,000 samples, 0.19%)</title><rect x="1185.1" y="245" width="2.3" height="15.0" fill="rgb(244,69,8)" rx="2" ry="2" />
<text  x="1188.12" y="255.5" ></text>
</g>
<g >
<title>Gang_worker#1_( (616,250,000 samples, 0.01%)</title><rect x="1188.1" y="309" width="0.2" height="15.0" fill="rgb(205,96,47)" rx="2" ry="2" />
<text  x="1191.13" y="319.5" ></text>
</g>
<g >
<title>GangWorker::loop (583,000,000 samples, 0.01%)</title><rect x="1189.2" y="261" width="0.1" height="15.0" fill="rgb(226,94,21)" rx="2" ry="2" />
<text  x="1192.17" y="271.5" ></text>
</g>
<g >
<title>ParNewGenTask::work (587,000,000 samples, 0.01%)</title><rect x="1188.0" y="245" width="0.1" height="15.0" fill="rgb(216,115,35)" rx="2" ry="2" />
<text  x="1190.96" y="255.5" ></text>
</g>
<g >
<title>thread_entry (7,901,750,000 samples, 0.19%)</title><rect x="1185.1" y="229" width="2.3" height="15.0" fill="rgb(219,203,0)" rx="2" ry="2" />
<text  x="1188.12" y="239.5" ></text>
</g>
<g >
<title>[perf-11308.map] (4,427,250,000 samples, 0.11%)</title><rect x="1186.1" y="69" width="1.3" height="15.0" fill="rgb(230,58,49)" rx="2" ry="2" />
<text  x="1189.10" y="79.5" ></text>
</g>
<g >
<title>start_thread (598,750,000 samples, 0.01%)</title><rect x="1189.5" y="293" width="0.2" height="15.0" fill="rgb(232,189,37)" rx="2" ry="2" />
<text  x="1192.51" y="303.5" ></text>
</g>
<g >
<title>all (4,168,579,000,000 samples, 100%)</title><rect x="10.0" y="325" width="1180.0" height="15.0" fill="rgb(239,10,30)" rx="2" ry="2" />
<text  x="13.00" y="335.5" ></text>
</g>
<g >
<title>CompileBroker::invoke_compiler_on_method (1,712,000,000 samples, 0.04%)</title><rect x="1187.4" y="213" width="0.5" height="15.0" fill="rgb(217,126,9)" rx="2" ry="2" />
<text  x="1190.45" y="223.5" ></text>
</g>
<g >
<title>JavaCalls::call_virtual (7,901,750,000 samples, 0.19%)</title><rect x="1185.1" y="213" width="2.3" height="15.0" fill="rgb(241,177,12)" rx="2" ry="2" />
<text  x="1188.12" y="223.5" ></text>
</g>
<g >
<title>GenCollectedHeap::gen_process_roots (362,000,000 samples, 0.01%)</title><rect x="1188.7" y="229" width="0.1" height="15.0" fill="rgb(227,30,1)" rx="2" ry="2" />
<text  x="1191.66" y="239.5" ></text>
</g>
<g >
<title>start_thread (584,250,000 samples, 0.01%)</title><rect x="1189.2" y="293" width="0.1" height="15.0" fill="rgb(226,40,41)" rx="2" ry="2" />
<text  x="1192.17" y="303.5" ></text>
</g>
<g >
<title>java (557,750,000 samples, 0.01%)</title><rect x="1189.8" y="309" width="0.2" height="15.0" fill="rgb(208,93,9)" rx="2" ry="2" />
<text  x="1192.84" y="319.5" ></text>
</g>
<g >
<title>ParNewGenTask::work (606,500,000 samples, 0.01%)</title><rect x="1188.7" y="245" width="0.1" height="15.0" fill="rgb(254,206,41)" rx="2" ry="2" />
<text  x="1191.66" y="255.5" ></text>
</g>
<g >
<title>start_thread (590,250,000 samples, 0.01%)</title><rect x="1189.3" y="293" width="0.2" height="15.0" fill="rgb(246,200,16)" rx="2" ry="2" />
<text  x="1192.34" y="303.5" ></text>
</g>
<g >
<title>java_start (1,718,000,000 samples, 0.04%)</title><rect x="1187.4" y="277" width="0.5" height="15.0" fill="rgb(245,94,15)" rx="2" ry="2" />
<text  x="1190.45" y="287.5" ></text>
</g>
<g >
<title>[perf-11308.map] (420,500,000 samples, 0.01%)</title><rect x="1189.9" y="101" width="0.1" height="15.0" fill="rgb(217,218,5)" rx="2" ry="2" />
<text  x="1192.88" y="111.5" ></text>
</g>
<g >
<title>VMThread::loop (383,750,000 samples, 0.01%)</title><rect x="1189.7" y="245" width="0.1" height="15.0" fill="rgb(254,195,24)" rx="2" ry="2" />
<text  x="1192.73" y="255.5" ></text>
</g>
<g >
<title>GangWorker::loop (590,000,000 samples, 0.01%)</title><rect x="1189.3" y="261" width="0.2" height="15.0" fill="rgb(215,162,33)" rx="2" ry="2" />
<text  x="1192.34" y="271.5" ></text>
</g>
<g >
<title>JavaCalls::call_helper (7,901,750,000 samples, 0.19%)</title><rect x="1185.1" y="181" width="2.3" height="15.0" fill="rgb(222,67,25)" rx="2" ry="2" />
<text  x="1188.12" y="191.5" ></text>
</g>
<g >
<title>Gang_worker#6_( (599,000,000 samples, 0.01%)</title><rect x="1189.0" y="309" width="0.2" height="15.0" fill="rgb(226,122,33)" rx="2" ry="2" />
<text  x="1192.00" y="319.5" ></text>
</g>
<g >
<title>[perf-11308.map] (431,750,000 samples, 0.01%)</title><rect x="1189.9" y="133" width="0.1" height="15.0" fill="rgb(242,41,8)" rx="2" ry="2" />
<text  x="1192.88" y="143.5" ></text>
</g>
<g >
<title>Gang_worker#7_( (594,500,000 samples, 0.01%)</title><rect x="1189.2" y="309" width="0.1" height="15.0" fill="rgb(225,175,54)" rx="2" ry="2" />
<text  x="1192.17" y="319.5" ></text>
</g>
<g >
<title>[perf-11308.map] (433,750,000 samples, 0.01%)</title><rect x="1189.9" y="213" width="0.1" height="15.0" fill="rgb(242,67,24)" rx="2" ry="2" />
<text  x="1192.88" y="223.5" ></text>
</g>
<g >
<title>[perf-11308.map] (4,444,000,000 samples, 0.11%)</title><rect x="1186.1" y="101" width="1.3" height="15.0" fill="rgb(246,66,13)" rx="2" ry="2" />
<text  x="1189.09" y="111.5" ></text>
</g>
<g >
<title>Gang_worker#4_( (622,250,000 samples, 0.01%)</title><rect x="1188.7" y="309" width="0.1" height="15.0" fill="rgb(242,216,5)" rx="2" ry="2" />
<text  x="1191.66" y="319.5" ></text>
</g>
<g >
<title>start_thread (612,250,000 samples, 0.01%)</title><rect x="1188.7" y="293" width="0.1" height="15.0" fill="rgb(239,126,44)" rx="2" ry="2" />
<text  x="1191.66" y="303.5" ></text>
</g>
<g >
<title>CompileBroker::compiler_thread_loop (1,718,000,000 samples, 0.04%)</title><rect x="1187.4" y="229" width="0.5" height="15.0" fill="rgb(205,12,30)" rx="2" ry="2" />
<text  x="1190.45" y="239.5" ></text>
</g>
<g >
<title>Compile::Code_Gen (942,000,000 samples, 0.02%)</title><rect x="1187.5" y="165" width="0.2" height="15.0" fill="rgb(234,191,28)" rx="2" ry="2" />
<text  x="1190.45" y="175.5" ></text>
</g>
<g >
<title>GenCollectedHeap::gen_process_roots (360,250,000 samples, 0.01%)</title><rect x="1188.3" y="229" width="0.1" height="15.0" fill="rgb(242,20,33)" rx="2" ry="2" />
<text  x="1191.31" y="239.5" ></text>
</g>
<g >
<title>ParNewGenTask::work (577,750,000 samples, 0.01%)</title><rect x="1189.2" y="245" width="0.1" height="15.0" fill="rgb(211,215,2)" rx="2" ry="2" />
<text  x="1192.17" y="255.5" ></text>
</g>
<g >
<title>java_start (607,250,000 samples, 0.01%)</title><rect x="1188.1" y="277" width="0.2" height="15.0" fill="rgb(207,73,45)" rx="2" ry="2" />
<text  x="1191.13" y="287.5" ></text>
</g>
<g >
<title>start_thread (614,000,000 samples, 0.01%)</title><rect x="1188.0" y="293" width="0.1" height="15.0" fill="rgb(220,203,0)" rx="2" ry="2" />
<text  x="1190.95" y="303.5" ></text>
</g>
<g >
<title>Gang_worker#3_( (610,750,000 samples, 0.01%)</title><rect x="1188.5" y="309" width="0.2" height="15.0" fill="rgb(235,228,15)" rx="2" ry="2" />
<text  x="1191.48" y="319.5" ></text>
</g>
<g >
<title>[perf-11308.map] (3,616,669,250,000 samples, 86.76%)</title><rect x="10.0" y="293" width="1023.8" height="15.0" fill="rgb(217,131,33)" rx="2" ry="2" />
<text  x="13.00" y="303.5" >[perf-11308.map]</text>
</g>
<g >
<title>java_start (590,250,000 samples, 0.01%)</title><rect x="1189.0" y="277" width="0.2" height="15.0" fill="rgb(226,194,25)" rx="2" ry="2" />
<text  x="1192.00" y="287.5" ></text>
</g>
<g >
<title>[perf-11308.map] (1,326,750,000 samples, 0.03%)</title><rect x="1033.4" y="277" width="0.4" height="15.0" fill="rgb(217,133,35)" rx="2" ry="2" />
<text  x="1036.40" y="287.5" ></text>
</g>
<g >
<title>JavaCalls::call_helper (433,750,000 samples, 0.01%)</title><rect x="1189.9" y="229" width="0.1" height="15.0" fill="rgb(212,104,32)" rx="2" ry="2" />
<text  x="1192.88" y="239.5" ></text>
</g>
<g >
<title>[libc-2.31.so] (2,758,000,000 samples, 0.07%)</title><rect x="1178.8" y="245" width="0.8" height="15.0" fill="rgb(251,4,42)" rx="2" ry="2" />
<text  x="1181.77" y="255.5" ></text>
</g>
<g >
<title>java_start (612,250,000 samples, 0.01%)</title><rect x="1188.7" y="277" width="0.1" height="15.0" fill="rgb(246,195,13)" rx="2" ry="2" />
<text  x="1191.66" y="287.5" ></text>
</g>
<g >
<title>GenCollectedHeap::gen_process_roots (365,000,000 samples, 0.01%)</title><rect x="1188.5" y="229" width="0.1" height="15.0" fill="rgb(215,100,51)" rx="2" ry="2" />
<text  x="1191.49" y="239.5" ></text>
</g>
<g >
<title>[perf-11308.map] (4,383,250,000 samples, 0.11%)</title><rect x="1186.1" y="53" width="1.3" height="15.0" fill="rgb(216,210,31)" rx="2" ry="2" />
<text  x="1189.11" y="63.5" ></text>
</g>
<g >
<title>jni_invoke_static (433,750,000 samples, 0.01%)</title><rect x="1189.9" y="245" width="0.1" height="15.0" fill="rgb(225,195,50)" rx="2" ry="2" />
<text  x="1192.88" y="255.5" ></text>
</g>
<g >
<title>ParNewGenTask::work (596,750,000 samples, 0.01%)</title><rect x="1188.5" y="245" width="0.2" height="15.0" fill="rgb(242,103,31)" rx="2" ry="2" />
<text  x="1191.49" y="255.5" ></text>
</g>
<g >
<title>ParNewGenTask::work (584,500,000 samples, 0.01%)</title><rect x="1189.3" y="245" width="0.2" height="15.0" fill="rgb(227,196,43)" rx="2" ry="2" />
<text  x="1192.34" y="255.5" ></text>
</g>
<g >
<title>[unknown] (534,591,000,000 samples, 12.82%)</title><rect x="1033.8" y="293" width="151.3" height="15.0" fill="rgb(227,115,37)" rx="2" ry="2" />
<text  x="1036.77" y="303.5" >[unknown]</text>
</g>
<g >
<title>Gang_worker#8_( (597,500,000 samples, 0.01%)</title><rect x="1189.3" y="309" width="0.2" height="15.0" fill="rgb(237,4,27)" rx="2" ry="2" />
<text  x="1192.33" y="319.5" ></text>
</g>
<g >
<title>Gang_worker#9_( (607,500,000 samples, 0.01%)</title><rect x="1189.5" y="309" width="0.2" height="15.0" fill="rgb(235,147,8)" rx="2" ry="2" />
<text  x="1192.50" y="319.5" ></text>
</g>
<g >
<title>start_thread (386,500,000 samples, 0.01%)</title><rect x="1189.7" y="293" width="0.1" height="15.0" fill="rgb(209,99,11)" rx="2" ry="2" />
<text  x="1192.73" y="303.5" ></text>
</g>
<g >
<title>VM_Thread (430,000,000 samples, 0.01%)</title><rect x="1189.7" y="309" width="0.1" height="15.0" fill="rgb(232,134,28)" rx="2" ry="2" />
<text  x="1192.72" y="319.5" ></text>
</g>
<g >
<title>[perf-11308.map] (433,750,000 samples, 0.01%)</title><rect x="1189.9" y="197" width="0.1" height="15.0" fill="rgb(205,43,33)" rx="2" ry="2" />
<text  x="1192.88" y="207.5" ></text>
</g>
<g >
<title>GangWorker::loop (588,500,000 samples, 0.01%)</title><rect x="1188.1" y="261" width="0.2" height="15.0" fill="rgb(219,163,12)" rx="2" ry="2" />
<text  x="1191.13" y="271.5" ></text>
</g>
<g >
<title>[perf-11308.map] (431,750,000 samples, 0.01%)</title><rect x="1189.9" y="117" width="0.1" height="15.0" fill="rgb(250,115,38)" rx="2" ry="2" />
<text  x="1192.88" y="127.5" ></text>
</g>
<g >
<title>[perf-11308.map] (408,000,000 samples, 0.01%)</title><rect x="1189.9" y="69" width="0.1" height="15.0" fill="rgb(251,183,19)" rx="2" ry="2" />
<text  x="1192.88" y="79.5" ></text>
</g>
<g >
<title>java_start (614,000,000 samples, 0.01%)</title><rect x="1188.0" y="277" width="0.1" height="15.0" fill="rgb(239,161,26)" rx="2" ry="2" />
<text  x="1190.95" y="287.5" ></text>
</g>
<g >
<title>java_start (584,250,000 samples, 0.01%)</title><rect x="1189.2" y="277" width="0.1" height="15.0" fill="rgb(207,176,40)" rx="2" ry="2" />
<text  x="1192.17" y="287.5" ></text>
</g>
<g >
<title>[perf-11308.map] (393,750,000 samples, 0.01%)</title><rect x="1189.9" y="53" width="0.1" height="15.0" fill="rgb(247,192,7)" rx="2" ry="2" />
<text  x="1192.89" y="63.5" ></text>
</g>
<g >
<title>java_start (386,500,000 samples, 0.01%)</title><rect x="1189.7" y="277" width="0.1" height="15.0" fill="rgb(252,212,3)" rx="2" ry="2" />
<text  x="1192.73" y="287.5" ></text>
</g>
<g >
<title>start_thread (590,250,000 samples, 0.01%)</title><rect x="1189.0" y="293" width="0.2" height="15.0" fill="rgb(222,178,22)" rx="2" ry="2" />
<text  x="1192.00" y="303.5" ></text>
</g>
<g >
<title>[perf-11308.map] (4,435,500,000 samples, 0.11%)</title><rect x="1186.1" y="85" width="1.3" height="15.0" fill="rgb(214,91,47)" rx="2" ry="2" />
<text  x="1189.10" y="95.5" ></text>
</g>
<g >
<title>start_thread (603,500,000 samples, 0.01%)</title><rect x="1188.5" y="293" width="0.2" height="15.0" fill="rgb(222,126,21)" rx="2" ry="2" />
<text  x="1191.48" y="303.5" ></text>
</g>
<g >
<title>BenchmarkThread (4,159,232,250,000 samples, 99.78%)</title><rect x="10.0" y="309" width="1177.4" height="15.0" fill="rgb(205,174,32)" rx="2" ry="2" />
<text  x="13.00" y="319.5" >BenchmarkThread</text>
</g>
<g >
<title>GenCollectedHeap::gen_process_roots (360,250,000 samples, 0.01%)</title><rect x="1188.0" y="229" width="0.1" height="15.0" fill="rgb(217,30,54)" rx="2" ry="2" />
<text  x="1190.96" y="239.5" ></text>
</g>
<g >
<title>PhaseIdealLoop::build_and_optimize (360,000,000 samples, 0.01%)</title><rect x="1187.7" y="149" width="0.1" height="15.0" fill="rgb(241,17,32)" rx="2" ry="2" />
<text  x="1190.74" y="159.5" ></text>
</g>
<g >
<title>start_thread (7,902,250,000 samples, 0.19%)</title><rect x="1185.1" y="293" width="2.3" height="15.0" fill="rgb(250,102,18)" rx="2" ry="2" />
<text  x="1188.12" y="303.5" ></text>
</g>
<g >
<title>java_start (626,500,000 samples, 0.02%)</title><rect x="1188.3" y="277" width="0.2" height="15.0" fill="rgb(243,17,42)" rx="2" ry="2" />
<text  x="1191.31" y="287.5" ></text>
</g>
<g >
<title>java_start (7,902,250,000 samples, 0.19%)</title><rect x="1185.1" y="277" width="2.3" height="15.0" fill="rgb(207,160,8)" rx="2" ry="2" />
<text  x="1188.12" y="287.5" ></text>
</g>
<g >
<title>[perf-11308.map] (433,500,000 samples, 0.01%)</title><rect x="1189.9" y="165" width="0.1" height="15.0" fill="rgb(238,117,49)" rx="2" ry="2" />
<text  x="1192.88" y="175.5" ></text>
</g>
<g >
<title>ParNewGenTask::work (570,750,000 samples, 0.01%)</title><rect x="1188.8" y="245" width="0.2" height="15.0" fill="rgb(231,220,35)" rx="2" ry="2" />
<text  x="1191.83" y="255.5" ></text>
</g>
<g >
<title>[perf-11308.map] (7,901,750,000 samples, 0.19%)</title><rect x="1185.1" y="133" width="2.3" height="15.0" fill="rgb(224,127,47)" rx="2" ry="2" />
<text  x="1188.12" y="143.5" ></text>
</g>
<g >
<title>GangWorker::loop (598,500,000 samples, 0.01%)</title><rect x="1189.5" y="261" width="0.2" height="15.0" fill="rgb(239,147,46)" rx="2" ry="2" />
<text  x="1192.51" y="271.5" ></text>
</g>
<g >
<title>JavaMain (434,000,000 samples, 0.01%)</title><rect x="1189.9" y="277" width="0.1" height="15.0" fill="rgb(208,171,41)" rx="2" ry="2" />
<text  x="1192.88" y="287.5" ></text>
</g>
<g >
<title>OptoRuntime::new_array_C (3,459,750,000 samples, 0.08%)</title><rect x="1178.6" y="261" width="1.0" height="15.0" fill="rgb(207,62,34)" rx="2" ry="2" />
<text  x="1181.58" y="271.5" ></text>
</g>
<g >
<title>java_start (603,500,000 samples, 0.01%)</title><rect x="1188.5" y="277" width="0.2" height="15.0" fill="rgb(213,101,47)" rx="2" ry="2" />
<text  x="1191.48" y="287.5" ></text>
</g>
<g >
<title>[perf-11308.map] (7,901,750,000 samples, 0.19%)</title><rect x="1185.1" y="165" width="2.3" height="15.0" fill="rgb(249,32,0)" rx="2" ry="2" />
<text  x="1188.12" y="175.5" ></text>
</g>
<g >
<title>[perf-11308.map] (534,469,500,000 samples, 12.82%)</title><rect x="1033.8" y="277" width="151.3" height="15.0" fill="rgb(244,88,10)" rx="2" ry="2" />
<text  x="1036.78" y="287.5" >[perf-11308.map]</text>
</g>
<g >
<title>Compile::Optimize (532,250,000 samples, 0.01%)</title><rect x="1187.7" y="165" width="0.2" height="15.0" fill="rgb(210,60,2)" rx="2" ry="2" />
<text  x="1190.72" y="175.5" ></text>
</g>
<g >
<title>[perf-11308.map] (7,901,750,000 samples, 0.19%)</title><rect x="1185.1" y="149" width="2.3" height="15.0" fill="rgb(217,121,14)" rx="2" ry="2" />
<text  x="1188.12" y="159.5" ></text>
</g>
<g >
<title>GangWorker::loop (576,000,000 samples, 0.01%)</title><rect x="1188.8" y="261" width="0.2" height="15.0" fill="rgb(226,41,49)" rx="2" ry="2" />
<text  x="1191.83" y="271.5" ></text>
</g>
<g >
<title>GenCollectedHeap::gen_process_roots (358,000,000 samples, 0.01%)</title><rect x="1188.1" y="229" width="0.1" height="15.0" fill="rgb(228,154,10)" rx="2" ry="2" />
<text  x="1191.13" y="239.5" ></text>
</g>
<g >
<title>GenCollectedHeap::gen_process_roots (362,500,000 samples, 0.01%)</title><rect x="1189.5" y="229" width="0.1" height="15.0" fill="rgb(218,50,52)" rx="2" ry="2" />
<text  x="1192.51" y="239.5" ></text>
</g>
<g >
<title>GangWorker::loop (602,750,000 samples, 0.01%)</title><rect x="1188.3" y="261" width="0.2" height="15.0" fill="rgb(243,130,49)" rx="2" ry="2" />
<text  x="1191.31" y="271.5" ></text>
</g>
<g >
<title>java_start (576,500,000 samples, 0.01%)</title><rect x="1188.8" y="277" width="0.2" height="15.0" fill="rgb(250,6,4)" rx="2" ry="2" />
<text  x="1191.83" y="287.5" ></text>
</g>
<g >
<title>Gang_worker#0_( (620,750,000 samples, 0.01%)</title><rect x="1188.0" y="309" width="0.1" height="15.0" fill="rgb(241,118,52)" rx="2" ry="2" />
<text  x="1190.95" y="319.5" ></text>
</g>
<g >
<title>start_thread (576,500,000 samples, 0.01%)</title><rect x="1188.8" y="293" width="0.2" height="15.0" fill="rgb(236,210,49)" rx="2" ry="2" />
<text  x="1191.83" y="303.5" ></text>
</g>
<g >
<title>[perf-11308.map] (433,500,000 samples, 0.01%)</title><rect x="1189.9" y="149" width="0.1" height="15.0" fill="rgb(212,125,25)" rx="2" ry="2" />
<text  x="1192.88" y="159.5" ></text>
</g>
<g >
<title>start_thread (626,500,000 samples, 0.02%)</title><rect x="1188.3" y="293" width="0.2" height="15.0" fill="rgb(240,201,5)" rx="2" ry="2" />
<text  x="1191.31" y="303.5" ></text>
</g>
<g >
<title>start_thread (607,250,000 samples, 0.01%)</title><rect x="1188.1" y="293" width="0.2" height="15.0" fill="rgb(235,202,11)" rx="2" ry="2" />
<text  x="1191.13" y="303.5" ></text>
</g>
</g>
</svg>
